<?xml version="1.0" encoding="UTF-8" standalone="no"?><!DOCTYPE svg PUBLIC "-//W3C//DTD SVG 1.1//EN" "http://www.w3.org/Graphics/SVG/1.1/DTD/svg11.dtd"><svg width="100%" height="100%" viewBox="0 0 275 259" version="1.1" xmlns="http://www.w3.org/2000/svg" xmlns:xlink="http://www.w3.org/1999/xlink" xml:space="preserve" xmlns:serif="http://www.serif.com/" style="fill-rule:evenodd;clip-rule:evenodd;stroke-linejoin:round;stroke-miterlimit:1.41421;"><rect id="hf_icon" x="0" y="0" width="274.037" height="258.827" style="fill:none;"/><path d="M78.601,104.709l-18.099,0c-1.507,-0.05 -1.757,-0.177 -2.411,-0.398c-2.632,-0.894 -4.659,-3.342 -5.025,-6.123c-0.057,-0.433 -0.05,-0.544 -0.064,-0.979l0,-37.417c0.05,-1.507 0.176,-1.757 0.398,-2.41c0.894,-2.632 3.342,-4.659 6.123,-5.025c0.433,-0.057 0.543,-0.05 0.979,-0.065l86.737,0c0.164,0.006 0.327,0.011 0.491,0.017c1.501,0.147 1.742,0.29 2.379,0.554c2.414,1 4.222,3.334 4.566,5.951c0.057,0.432 0.05,0.543 0.064,0.978l0,11.316l9.754,0c0.589,0 1.158,0.218 1.596,0.612c4.407,3.964 28.872,25.97 33.599,30.221c0.503,0.453 0.791,1.098 0.791,1.775l0,45.518l12.238,0c0.164,0.005 0.327,0.011 0.491,0.016c1.501,0.148 1.742,0.291 2.379,0.555c2.414,0.999 4.222,3.333 4.566,5.95c0.057,0.433 0.05,0.543 0.064,0.979l0,37.416c-0.049,1.508 -0.176,1.757 -0.398,2.411c-0.893,2.632 -3.342,4.659 -6.123,5.025c-0.433,0.057 -0.543,0.05 -0.979,0.064l-86.737,0c-1.508,-0.049 -1.757,-0.176 -2.411,-0.398c-2.632,-0.893 -4.659,-3.342 -5.025,-6.123c-0.057,-0.433 -0.05,-0.543 -0.064,-0.979l0,-3.547l-30.333,0c-5.272,0 -9.546,-4.274 -9.546,-9.546l0,-76.348Zm52.879,57.525l0,26.416l75.737,0l0,-26.416c-23.912,0 -51.824,0 -75.737,0Zm23.259,-79.515l0,14.49c-0.049,1.507 -0.176,1.757 -0.398,2.41c-0.893,2.632 -3.342,4.659 -6.123,5.025c-0.433,0.057 -0.543,0.05 -0.979,0.065l-56.979,0c0.032,22.761 0.081,55.992 0.098,69.494c0.003,2.632 2.135,4.764 4.767,4.767c5.309,0.007 13.704,0.018 23.355,0.032l0,-22.268c0.049,-1.508 0.176,-1.757 0.398,-2.411c0.894,-2.632 3.342,-4.659 6.123,-5.025c0.433,-0.057 0.543,-0.05 0.979,-0.064l62.818,0c0.032,-17.632 0.069,-37.322 0.078,-42.594c0,-0.317 -0.125,-0.621 -0.349,-0.845c-0.224,-0.224 -0.528,-0.35 -0.844,-0.35c-5.699,0 -24.728,0 -24.728,0c0,0 0,-16.218 0,-21.545c0,-0.317 -0.126,-0.621 -0.35,-0.845c-0.224,-0.224 -0.528,-0.349 -0.845,-0.349l-7.021,0.013Zm-88.737,-17.427l0,26.417l75.737,0l0,-26.417c-23.912,0 -51.824,0 -75.737,0Z" style="fill:#fff;"/></svg>