<?xml version="1.0" encoding="UTF-8" standalone="no"?><!DOCTYPE svg PUBLIC "-//W3C//DTD SVG 1.1//EN" "http://www.w3.org/Graphics/SVG/1.1/DTD/svg11.dtd"><svg width="275px" height="259px" version="1.1" xmlns="http://www.w3.org/2000/svg" xmlns:xlink="http://www.w3.org/1999/xlink" xml:space="preserve" xmlns:serif="http://www.serif.com/" style="fill-rule:evenodd;clip-rule:evenodd;stroke-linejoin:round;stroke-miterlimit:1.41421;"><rect id="plus_icon" x="0" y="0" width="274.037" height="258.827" style="fill:none;"/><path d="M133.379,129.504l0,-18.333c0.009,-0.343 0.005,-0.43 0.041,-0.772c0.357,-3.316 3.253,-6.212 6.73,-6.568c0.763,-0.079 0.943,-0.037 1.187,-0.031c1.284,0.099 1.636,0.226 2.314,0.48c2.586,0.969 4.519,3.416 4.81,6.119c0.037,0.342 0.033,0.429 0.042,0.772l0,18.333l18.783,0c0.132,0.003 0.264,0.006 0.395,0.01c3.744,0.287 6.961,3.35 7.156,6.984c0.214,3.977 -3.296,7.658 -7.551,7.767l-18.783,0l0,18.333c-0.13,4.821 -5.532,8.666 -10.272,6.89c-2.831,-1.061 -4.772,-3.896 -4.852,-6.89l0,-18.333l-18.783,0c-3.754,-0.096 -7.131,-2.99 -7.52,-6.609c-0.44,-4.079 3.123,-8.04 7.52,-8.152l18.783,0Z" style="fill:#fff;"/><path d="M70.06,76.504c0,-6.2 5.026,-11.226 11.226,-11.226c0,0 79.559,0 89.78,0c0.693,0 1.361,0.256 1.877,0.72c5.182,4.661 33.953,30.539 39.511,35.539c0.592,0.532 0.93,1.29 0.93,2.086c0,11.006 0,90.952 0,90.952c0,6.199 -5.025,11.225 -11.226,11.225l-120.872,0c-6.2,0 -11.226,-5.026 -11.226,-11.225l0,-118.071Zm99.198,29.153c0,0 0,-19.072 0,-25.337c0,-0.372 -0.148,-0.73 -0.412,-0.993c-0.263,-0.263 -0.621,-0.411 -0.994,-0.41c-9.655,0.017 -60.325,0.113 -78.505,0.144c-3.099,0.005 -5.607,2.521 -5.603,5.62c0.025,20.76 0.116,81.092 0.141,101.834c0.004,3.094 2.512,5.602 5.607,5.606c21.062,0.025 83.403,0.116 104.484,0.142c3.099,0.004 5.614,-2.505 5.619,-5.604c0.031,-18.334 0.128,-69.863 0.145,-79.597c0,-0.372 -0.147,-0.73 -0.411,-0.993c-0.263,-0.264 -0.62,-0.412 -0.993,-0.412c-6.7,0 -29.078,0 -29.078,0Z" style="fill:#fff;"/></svg>