<?xml version="1.0" encoding="UTF-8"?>
<svg width="36px" height="32px" viewBox="0 0 36 32" version="1.1" xmlns="http://www.w3.org/2000/svg" xmlns:xlink="http://www.w3.org/1999/xlink">
    <!-- Generator: Sketch 48.2 (47327) - http://www.bohemiancoding.com/sketch -->
    <title>Print</title>
    <desc>Created with Sketch.</desc>
    <defs></defs>
    <g id="Invoice-Entry" stroke="none" stroke-width="1" fill="none" fill-rule="evenodd" transform="translate(-1147.000000, -14.000000)">
        <g transform="translate(0.000000, -11.000000)" id="Print-Button">
            <g transform="translate(1131.000000, 12.000000)">
                <g id="Print" transform="translate(13.500000, 8.187744)">
                    <path d="M33.0584339,13.9193406 L8.69958786,13.9193406 C5.82002428,13.9193406 3.47983514,16.2595297 3.47983514,19.1390933 L3.47983514,29.5785987 L10.4395054,29.5785987 L10.4395054,36.538269 L31.3185163,36.538269 L31.3185163,29.5785987 L38.2781866,29.5785987 L38.2781866,19.1390933 C38.2781866,16.2595297 35.9379974,13.9193406 33.0584339,13.9193406 Z M27.8386811,33.0584339 L13.9193406,33.0584339 L13.9193406,24.358846 L27.8386811,24.358846 L27.8386811,33.0584339 Z M33.0584339,20.8790109 C32.0927796,20.8790109 31.3185163,20.1047475 31.3185163,19.1390933 C31.3185163,18.173439 32.0927796,17.3991757 33.0584339,17.3991757 C34.0240881,17.3991757 34.7983514,18.173439 34.7983514,19.1390933 C34.7983514,20.1047475 34.0240881,20.8790109 33.0584339,20.8790109 Z M31.3185163,5.21975272 L10.4395054,5.21975272 L10.4395054,12.179423 L31.3185163,12.179423 L31.3185163,5.21975272 Z" id="Shape" fill="#FFFFFF" fill-rule="nonzero"></path>
                    <polygon id="Shape" points="0 0 41.7580217 0 41.7580217 41.7580217 0 41.7580217"></polygon>
                </g>
            </g>
        </g>
    </g>
</svg>