<?xml version="1.0" encoding="UTF-8" standalone="no"?><!DOCTYPE svg PUBLIC "-//W3C//DTD SVG 1.1//EN" "http://www.w3.org/Graphics/SVG/1.1/DTD/svg11.dtd"><svg width="275px" height="260px" version="1.1" xmlns="http://www.w3.org/2000/svg" xmlns:xlink="http://www.w3.org/1999/xlink" xml:space="preserve" xmlns:serif="http://www.serif.com/" style="fill-rule:evenodd;clip-rule:evenodd;stroke-linejoin:round;stroke-miterlimit:1.41421;"><rect id="zap_icon" x="0.333" y="0.667" width="274.037" height="258.827" style="fill:none;"/><path d="M99.095,58.237c0,-5.2 4.215,-9.415 9.414,-9.415c0,0 66.722,0 75.294,0c0.581,0 1.141,0.215 1.573,0.604c4.347,3.909 28.475,25.612 33.137,29.805c0.496,0.446 0.779,1.082 0.779,1.749c0,9.23 0,76.276 0,76.276c0,5.199 -4.214,9.414 -9.414,9.414l-101.369,0c-5.199,0 -9.414,-4.215 -9.414,-9.414l0,-99.019Zm83.191,24.449c0,0 0,-15.994 0,-21.248c0,-0.313 -0.124,-0.613 -0.345,-0.833c-0.221,-0.221 -0.521,-0.345 -0.833,-0.344c-8.098,0.014 -50.592,0.095 -65.838,0.12c-2.599,0.005 -4.703,2.115 -4.7,4.714c0.022,17.41 0.098,68.007 0.119,85.401c0.004,2.596 2.107,4.699 4.702,4.702c17.663,0.021 69.945,0.098 87.625,0.119c2.599,0.003 4.708,-2.1 4.713,-4.699c0.026,-15.376 0.107,-58.591 0.12,-66.754c0.001,-0.312 -0.123,-0.612 -0.344,-0.833c-0.22,-0.221 -0.52,-0.345 -0.832,-0.345c-5.62,0 -24.387,0 -24.387,0Z" style="fill:#fff;"/><path d="M152.729,148.803l20.156,20.156c0.341,0.36 0.434,0.444 0.746,0.83c4.708,5.836 0.755,16.495 -7.461,17.043c-2.966,0.197 -5.932,-0.983 -8.11,-3.048l-20.156,-20.155l0,28.504c-0.168,5.344 -4.479,10.126 -9.824,10.463c-5.255,0.33 -10.391,-3.86 -11.059,-9.149c-0.073,-0.581 -0.064,-0.729 -0.083,-1.314l0,-28.504l-20.156,20.155c-5.06,4.799 -14.446,3.124 -17.124,-3.465c-1.402,-3.449 -0.784,-7.633 1.553,-10.53c0.312,-0.386 0.405,-0.47 0.746,-0.83l20.156,-20.156l-28.505,0c-5.343,-0.168 -10.126,-4.479 -10.462,-9.824c-0.33,-5.255 3.86,-10.391 9.149,-11.059c0.581,-0.073 0.729,-0.064 1.313,-0.083l28.505,0l-20.156,-20.155c-0.341,-0.36 -0.434,-0.444 -0.746,-0.83c-3.707,-4.595 -2.55,-12.344 2.717,-15.543c1.114,-0.676 2.353,-1.142 3.637,-1.366c0.732,-0.128 1.476,-0.159 2.223,-0.149c2.615,0.175 5.093,1.26 6.994,3.062l20.156,20.156l0,-28.504c0.064,-2.024 0.227,-2.359 0.513,-3.24c1.221,-3.756 4.713,-6.663 8.656,-7.161c1.264,-0.159 1.566,-0.075 1.973,-0.062c2.015,0.191 2.339,0.375 3.2,0.716c3.468,1.372 6.07,4.698 6.542,8.433c0.073,0.581 0.064,0.729 0.082,1.314l0,28.504l20.156,-20.156c2.183,-2.07 5.062,-3.169 8.11,-3.047c7.542,0.705 12.694,10.557 7.461,17.043c-0.312,0.386 -0.405,0.47 -0.746,0.83l-20.156,20.155l28.505,0l0.658,0.021c6.823,0.645 11.863,8.474 8.827,14.926c-1.493,3.174 -4.679,5.496 -8.171,5.937c-0.581,0.073 -0.729,0.064 -1.314,0.082l-28.505,0Zm-25.308,-22.224c6.48,0 11.741,5.261 11.741,11.741c0,6.48 -5.261,11.741 -11.741,11.741c-6.48,0 -11.741,-5.261 -11.741,-11.741c0,-6.48 5.261,-11.741 11.741,-11.741Z" style="fill:#fff;"/></svg>