<?xml version="1.0" encoding="UTF-8"?>
<svg width="33px" height="33px" viewBox="0 0 33 33" version="1.1" xmlns="http://www.w3.org/2000/svg" xmlns:xlink="http://www.w3.org/1999/xlink">
    <!-- Generator: Sketch 48.2 (47327) - http://www.bohemiancoding.com/sketch -->
    <title>Download</title>
    <desc>Created with Sketch.</desc>
    <defs></defs>
    <g id="Invoice-Entry" stroke="none" stroke-width="1" fill="none" fill-rule="evenodd" transform="translate(-1081.000000, -14.000000)">
        <g transform="translate(0.000000, -11.000000)" fill="#FFFFFF" fill-rule="nonzero" id="Download-Button">
            <g transform="translate(1063.000000, 12.000000)">
                <g id="Download" transform="translate(18.500000, 13.500000)">
                    <path d="M8.53638866,14.5218099 C8.16238692,14.8901945 7.95179625,15.3932146 7.95179625,15.918176 C7.95179625,16.4431375 8.16238692,16.9461575 8.53638866,17.3145422 L14.5795151,23.2999634 C15.3609322,24.0708215 16.6166981,24.0708215 17.3981152,23.2999634 L23.3019532,17.3304609 C23.6756467,16.9621135 23.8860408,16.4593079 23.8860408,15.9345922 C23.8860408,15.4098765 23.6756467,14.9070708 23.3019532,14.5387235 C22.5206382,13.7666729 21.2636733,13.7666729 20.4823582,14.5387235 L17.9085077,17.1583402 L17.9085077,0.994917093 C17.9085077,0.445439555 17.4630681,3.36457954e-17 16.9135906,0 L14.9237564,0 C14.3742789,-3.36457954e-17 13.9288393,0.445439555 13.9288393,0.994917093 L13.9288393,16.8568803 L13.6701609,16.8150938 L11.3549888,14.5218099 C10.5735717,13.7509518 9.31780573,13.7509518 8.53638866,14.5218099 Z" id="Shape"></path>
                    <path d="M29.8475128,3.97966837 L23.8581119,3.97966837 C22.7701464,3.97966837 21.8881761,4.86163869 21.8881761,5.94960422 L21.8881761,5.9894009 C21.8881761,7.07736643 22.7701464,7.95933675 23.8581119,7.95933675 L26.8627615,7.95933675 C27.4122391,7.95933675 27.8576786,8.4047763 27.8576786,8.95425384 L27.8576786,26.8627615 C27.8576786,27.4122391 27.4122391,27.8576786 26.8627615,27.8576786 L4.97458547,27.8576786 C4.42510793,27.8576786 3.97966837,27.4122391 3.97966837,26.8627615 L3.97966837,8.95425384 C3.97966837,8.4047763 4.42510793,7.95933675 4.97458547,7.95933675 L7.97923509,7.95933675 C8.50169456,7.95933675 9.00275545,7.75179053 9.37219008,7.3823559 C9.74162472,7.01292126 9.94917093,6.51186037 9.94917093,5.9894009 L9.94917093,5.94960422 C9.94917093,4.86163869 9.06720062,3.97966837 7.97923509,3.97966837 L1.98983419,3.97966837 C0.890879111,3.97966837 1.34583182e-16,4.87054748 0,5.96950256 L0,29.8475128 C1.34583182e-16,30.9464679 0.890879111,31.837347 1.98983419,31.837347 L29.8475128,31.837347 C30.9464679,31.837347 31.837347,30.9464679 31.837347,29.8475128 L31.837347,5.96950256 C31.837347,4.87054748 30.9464679,3.97966837 29.8475128,3.97966837 Z" id="Shape"></path>
                </g>
            </g>
        </g>
    </g>
</svg>