<?xml version="1.0" encoding="UTF-8" standalone="no"?><!DOCTYPE svg PUBLIC "-//W3C//DTD SVG 1.1//EN" "http://www.w3.org/Graphics/SVG/1.1/DTD/svg11.dtd"><svg width="100%" height="100%" viewBox="0 0 1397 533" version="1.1" xmlns="http://www.w3.org/2000/svg" xmlns:xlink="http://www.w3.org/1999/xlink" xml:space="preserve" xmlns:serif="http://www.serif.com/" style="fill-rule:evenodd;clip-rule:evenodd;stroke-linejoin:round;stroke-miterlimit:1.41421;"><rect id="Artboard1" x="0" y="0" width="1397" height="533" style="fill:#fff;"/><g><path d="M100.939,81.733l238.248,0l125.125,112.544l0,245.1c0,16.646 -12.862,30.464 -29.466,31.655l-373.174,26.768c-10.927,0.783 -20.42,-7.439 -21.204,-18.366c-0.071,-0.992 -0.068,-1.987 0.01,-2.978l28.823,-365.481c1.302,-16.509 15.078,-29.242 31.638,-29.242Z" style="fill:none;"/><clipPath id="_clip1"><path d="M100.939,81.733l238.248,0l125.125,112.544l0,245.1c0,16.646 -12.862,30.464 -29.466,31.655l-373.174,26.768c-10.927,0.783 -20.42,-7.439 -21.204,-18.366c-0.071,-0.992 -0.068,-1.987 0.01,-2.978l28.823,-365.481c1.302,-16.509 15.078,-29.242 31.638,-29.242Z"/></clipPath><g clip-path="url(#_clip1)"><g><path d="M95.893,100.537l-27.975,27.976l1.383,-17.538c1.167,-14.795 12.352,-26.557 26.592,-28.76l0,18.322Z" style="fill:#ff5026;"/><path d="M65.467,159.589l30.426,-30.427l0,44.883l-34.268,34.269l3.842,-48.725Z" style="fill:#ffdcc7;"/><path d="M59.174,239.39l36.719,-36.72l0,44.883l-40.562,40.562l3.843,-48.725Z" style="fill:#ff5026;"/><path d="M52.881,319.191l43.012,-43.013l0,44.882l-46.855,46.856l3.843,-48.725Z" style="fill:#ffdcc7;"/><path d="M46.587,398.992l49.306,-49.306l0,44.882l-53.148,53.149l3.842,-48.725Z" style="fill:#ff5026;"/><path d="M40.509,476.066l55.816,-55.816c1.458,11.527 9.161,21.079 19.693,25.189l-52.206,52.207l-2.14,0.154c-10.927,0.783 -20.42,-7.439 -21.204,-18.366c-0.071,-0.992 -0.068,-1.987 0.01,-2.978l0.031,-0.39Z" style="fill:#ffdcc7;"/><path d="M143.992,491.895l-48.35,3.468l47.66,-47.66l44.882,0l-44.192,44.192Z" style="fill:#ff5026;"/><path d="M224.173,486.143l-48.35,3.469l41.908,-41.909l44.883,0l-38.441,38.44Z" style="fill:#ffdcc7;"/><path d="M304.354,480.392l-48.35,3.468l36.157,-36.157l44.882,0l-32.689,32.689Z" style="fill:#ff5026;"/><path d="M336.185,478.109l30.405,-30.406l44.883,0l-26.938,26.938l-48.35,3.468Z" style="fill:#ffdcc7;"/><path d="M463.068,447.703c-3.363,12.762 -14.518,22.346 -28.222,23.329l-18.48,1.326l24.654,-24.655l22.048,0Z" style="fill:#ff5026;"/></g></g><g><path d="M393.087,147.836c0,0 0,-70.88 0,-88.592c0,-1.053 -0.419,-2.063 -1.164,-2.807c-0.746,-0.744 -1.756,-1.162 -2.81,-1.16c-27.297,0.047 -187.511,0.32 -238.907,0.407c-8.761,0.015 -15.852,7.127 -15.841,15.888c0.073,58.692 0.328,263.182 0.401,321.821c0.011,8.748 7.101,15.838 15.849,15.848c59.545,0.073 269.716,0.33 329.314,0.402c8.761,0.011 15.873,-7.08 15.888,-15.841c0.087,-51.834 0.361,-214.475 0.407,-241.993c0.002,-1.053 -0.415,-2.064 -1.159,-2.809c-0.744,-0.746 -1.754,-1.164 -2.808,-1.164c-18.943,0 -99.17,0 -99.17,0Z" style="fill:#fff;"/><path d="M112.643,65.417c0,-17.528 14.209,-31.737 31.737,-31.737c0,0 224.923,0 253.818,0c1.959,0 3.849,0.725 5.306,2.035c14.651,13.179 95.99,86.339 111.704,100.473c1.673,1.505 2.628,3.649 2.628,5.899c0,31.114 0,257.13 0,257.13c0,17.526 -14.207,31.735 -31.737,31.736l-341.719,0c-17.528,0 -31.737,-14.209 -31.737,-31.736l0,-333.8Zm280.444,82.419c0,0 0,-70.88 0,-88.592c0,-1.053 -0.419,-2.063 -1.164,-2.807c-0.746,-0.744 -1.756,-1.162 -2.81,-1.16c-27.297,0.047 -187.511,0.32 -238.907,0.407c-8.761,0.015 -15.852,7.127 -15.841,15.888c0.073,58.692 0.328,263.182 0.401,321.821c0.011,8.748 7.101,15.838 15.849,15.848c59.545,0.073 269.716,0.33 329.314,0.402c8.761,0.011 15.873,-7.08 15.888,-15.841c0.087,-51.834 0.361,-214.475 0.407,-241.993c0.002,-1.053 -0.415,-2.064 -1.159,-2.809c-0.744,-0.746 -1.754,-1.164 -2.808,-1.164c-18.943,0 -99.17,0 -99.17,0Z" style="fill:#db1a23;"/></g><path d="M848.813,351.605c-20.924,0 -35.67,-11.934 -35.67,-33.416l0,-0.398c0,-21.68 16.141,-33.813 41.448,-33.813c9.167,0 20.924,1.989 25.706,3.978l0,-1.791c0,-9.945 -6.177,-15.713 -20.126,-15.713c-11.159,0 -20.525,2.387 -30.09,6.166l-7.971,-30.035c12.554,-4.773 26.902,-7.956 45.833,-7.956c22.119,0 36.466,4.575 46.031,14.123c8.17,8.155 11.359,18.697 11.359,34.41l0,61.859l-45.235,0l0,-10.939c-7.572,8.155 -17.735,13.525 -31.285,13.525Zm17.934,-26.056c7.971,0 13.949,-6.365 13.949,-16.708l0,-4.575c-2.59,-0.995 -6.576,-1.79 -10.362,-1.79c-8.968,0 -13.949,5.37 -13.949,12.133l0,0.398c0,6.365 4.583,10.542 10.362,10.542Zm71.339,55.295l0,-140.427l45.235,0l0,13.327c7.373,-7.956 15.742,-15.912 32.282,-15.912c26.304,0 46.829,22.874 46.829,56.091l0,0.398c0,34.41 -20.725,57.284 -46.43,57.284c-16.54,0 -25.707,-7.161 -32.681,-14.918l0,44.157l-45.235,0Zm62.372,-66.434c10.363,0 18.134,-8.553 18.134,-19.493l0,-0.398c0,-10.939 -7.771,-19.492 -18.134,-19.492c-10.362,0 -18.133,8.553 -18.133,19.492l0,0.398c0,10.741 7.771,19.493 18.133,19.493Zm73.532,34.609l0,-139.233l48.622,0l29.89,48.931l29.891,-48.931l48.623,0l0,139.233l-46.431,0l0,-69.02l-32.083,49.528l-0.797,0l-32.082,-49.528l0,69.02l-45.633,0Zm228.166,2.586c-35.67,0 -59.782,-22.476 -59.782,-56.29l0,-0.398c0,-32.421 23.315,-57.085 55.996,-57.085c38.658,0 56.593,26.852 56.593,59.87c0,2.387 0,5.171 -0.199,7.558l-69.945,0c3.189,9.548 10.761,14.52 20.525,14.52c8.17,0 14.945,-3.779 22.119,-11.138l24.311,19.293c-10.76,13.924 -26.104,23.67 -49.618,23.67Zm-17.935,-66.235l29.492,0c-0.996,-10.343 -7.173,-16.31 -15.144,-16.31c-7.573,0 -12.953,6.365 -14.348,16.31Z" style="fill:#354146;"/><path d="M682.621,207.959c-0.663,-0.911 -7.932,73.102 -7.932,73.102l57.033,-11.14l-61.721,107.301l101.784,-24.303l4.976,28.417l32.56,-85.217l-40.881,8.256l65.312,-122.42c0,0 -151.794,25.093 -151.131,26.004Z" style="fill:#354146;"/><path d="M188.927,169.077l403.591,0l66.299,61.242l0,125.967c0,17.527 -14.209,31.736 -31.736,31.736l-438.154,0c-17.527,0 -31.736,-14.209 -31.736,-31.736l0,-155.472c0,-17.528 14.209,-31.737 31.736,-31.737Z" style="fill:#db1a23;"/><clipPath id="_clip2"><path d="M188.927,169.077l403.591,0l66.299,61.242l0,125.967c0,17.527 -14.209,31.736 -31.736,31.736l-438.154,0c-17.527,0 -31.736,-14.209 -31.736,-31.736l0,-155.472c0,-17.528 14.209,-31.737 31.736,-31.737Z"/></clipPath><g clip-path="url(#_clip2)"><path d="M207.497,348.541l0,-140.699l63.432,0c37.454,0 63.028,16.682 63.028,50.048l0,0.402c0,33.969 -25.976,52.059 -64.035,52.059l-15.304,0l0,38.19l-47.121,0Zm47.121,-71.757l12.686,0c12.082,0 20.137,-5.427 20.137,-15.477l0,-0.402c0,-10.251 -7.451,-15.477 -19.936,-15.477l-12.887,0l0,31.356Zm89.408,71.757l0,-140.699l53.967,0c55.981,0 83.971,27.536 83.971,69.143l0,0.402c0,41.607 -28.594,71.154 -85.582,71.154l-52.356,0Zm54.974,-99.696l-7.854,0l0,58.692l7.854,0c21.546,0 35.441,-8.844 35.441,-29.145l0,-0.402c0,-20.301 -13.895,-29.145 -35.441,-29.145Zm95.852,99.696l0,-140.699l118.003,0l0,40.199l-70.882,0l0,17.889l65.848,0l0,36.582l-65.848,0l0,46.029l-47.121,0Z" style="fill:#fff;"/><rect x="592.501" y="167.767" width="67.003" height="62.592" style="fill:#354146;"/></g></g></svg>