<?xml version="1.0" encoding="UTF-8" standalone="no"?><!DOCTYPE svg PUBLIC "-//W3C//DTD SVG 1.1//EN" "http://www.w3.org/Graphics/SVG/1.1/DTD/svg11.dtd"><svg width="100%" height="100%" viewBox="0 0 275 259" version="1.1" xmlns="http://www.w3.org/2000/svg" xmlns:xlink="http://www.w3.org/1999/xlink" xml:space="preserve" xmlns:serif="http://www.serif.com/" style="fill-rule:evenodd;clip-rule:evenodd;stroke-linejoin:round;stroke-miterlimit:1.41421;"><rect id="Minus-Icon" serif:id="Minus Icon" x="0.667" y="0" width="274.037" height="258.827" style="fill:none;"/><path d="M134.053,129.05l33.874,0c0.132,0.003 0.264,0.007 0.395,0.01c3.741,0.287 6.954,3.347 7.149,6.978c0.214,3.973 -3.292,7.65 -7.544,7.759l-18.765,0l-15.109,0l-18.765,0c-3.75,-0.096 -7.124,-2.987 -7.513,-6.603c-0.439,-4.075 3.12,-8.032 7.513,-8.144l18.765,0Z" style="fill:#fff;"/><path d="M70.727,76.504c0,-6.2 5.026,-11.226 11.226,-11.226c0,0 79.559,0 89.78,0c0.693,0 1.361,0.256 1.876,0.72c5.183,4.661 33.954,30.539 39.512,35.539c0.592,0.532 0.93,1.29 0.93,2.086c0,11.006 0,90.952 0,90.952c0,6.199 -5.026,11.225 -11.226,11.225l-120.872,0c-6.2,0 -11.226,-5.026 -11.226,-11.225l0,-118.071Zm99.198,29.153c0,0 0,-19.072 0,-25.337c0,-0.372 -0.148,-0.73 -0.412,-0.993c-0.264,-0.263 -0.621,-0.411 -0.994,-0.41c-9.655,0.017 -60.326,0.113 -78.505,0.144c-3.099,0.005 -5.608,2.521 -5.604,5.62c0.026,20.76 0.116,81.092 0.142,101.834c0.004,3.094 2.512,5.602 5.606,5.606c21.062,0.025 83.403,0.116 104.484,0.142c3.099,0.004 5.615,-2.505 5.62,-5.604c0.031,-18.334 0.128,-69.863 0.144,-79.597c0.001,-0.372 -0.147,-0.73 -0.41,-0.993c-0.263,-0.264 -0.62,-0.412 -0.993,-0.412c-6.701,0 -29.078,0 -29.078,0Z" style="fill:#fff;"/></svg>