<?xml version="1.0" encoding="UTF-8" standalone="no"?><!DOCTYPE svg PUBLIC "-//W3C//DTD SVG 1.1//EN" "http://www.w3.org/Graphics/SVG/1.1/DTD/svg11.dtd"><svg width="275px" height="260px" version="1.1" xmlns="http://www.w3.org/2000/svg" xmlns:xlink="http://www.w3.org/1999/xlink" xml:space="preserve" xmlns:serif="http://www.serif.com/" style="fill-rule:evenodd;clip-rule:evenodd;stroke-linejoin:round;stroke-miterlimit:1.41421;"><rect id="rotate_icon" x="0.667" y="0.333" width="274.037" height="258.827" style="fill:none;"/><path d="M99.303,156.292l-19.606,0c-4.644,0 -8.408,-3.765 -8.408,-8.408l0,-88.437c0,-4.644 3.764,-8.409 8.408,-8.409c0,0 37.121,0 44.776,0c0.519,0 1.02,0.192 1.406,0.539c3.882,3.492 25.432,22.875 29.595,26.62c0.443,0.398 0.696,0.966 0.696,1.563l0,35.643l39.978,0c4.644,0 8.408,3.765 8.408,8.409c0,0 0,37.12 0,44.776c0,0.519 -0.192,1.02 -0.539,1.405c-3.491,3.882 -22.875,25.432 -26.619,29.595c-0.399,0.444 -0.967,0.697 -1.563,0.697c-8.244,0 -68.124,0 -68.124,0c-4.644,0 -8.408,-3.764 -8.408,-8.409l0,-35.584Zm12.246,-24.334c-0.003,2.158 -0.1,46.551 -0.107,51.79c-0.002,2.321 1.876,4.205 4.198,4.209c13.732,0.023 50.329,0.096 57.619,0.108c0.279,0 0.547,-0.11 0.744,-0.307c0.198,-0.198 0.309,-0.465 0.309,-0.744c0,-5.019 0,-19.78 0,-19.78c0,0 12.285,0 16.977,0c0.279,0 0.547,-0.111 0.744,-0.309c0.197,-0.197 0.308,-0.465 0.307,-0.744c-0.012,-7.232 -0.084,-20.715 -0.108,-34.332c-0.003,-2.321 -1.888,-4.2 -4.209,-4.197c-7.041,0.009 -65.535,0.098 -72.275,0.107c-2.318,0.003 -4.196,1.881 -4.199,4.199Zm33.341,-16.555c0.026,-14.252 0.053,-28.864 0.06,-33.068c0.001,-0.279 -0.11,-0.546 -0.307,-0.744c-0.197,-0.197 -0.465,-0.308 -0.744,-0.308c-5.019,0 -20.78,0 -20.78,0c0,0 0,-13.285 0,-17.978c0,-0.279 -0.111,-0.546 -0.308,-0.744c-0.198,-0.197 -0.466,-0.307 -0.745,-0.307c-7.232,0.012 -21.714,0.085 -35.331,0.108c-2.321,0.004 -4.2,1.888 -4.197,4.209c0.019,15.55 0.087,57.74 0.106,73.276c0.003,2.317 1.881,4.196 4.199,4.198c4.029,0.005 7.609,0.014 12.46,0.023l0,-20.256c0,-4.644 3.764,-8.409 8.408,-8.409l37.179,0Z" style="fill:#fff;"/></svg>